<svg xmlns="http://www.w3.org/2000/svg" width="46" height="46" viewBox="0 0 46 46"><defs><clipPath id="yglya"><path fill="#fff" d="M0 23c0 12.703 10.297 23 23 23s23-10.297 23-23S35.703 0 23 0 0 10.297 0 23z"/></clipPath></defs><g><g><g><path fill="#fff" d="M0 23c0 12.703 10.297 23 23 23s23-10.297 23-23S35.703 0 23 0 0 10.297 0 23z"/><path fill="none" stroke="#dcdcdc" stroke-miterlimit="20" stroke-width="2" d="M0 23c0 12.703 10.297 23 23 23s23-10.297 23-23S35.703 0 23 0 0 10.297 0 23z" clip-path="url(&quot;#yglya&quot;)"/></g><g><g/><g><g><path fill="#1e1f21" d="M19.828 16.074a.573.573 0 0 0 0 .81L26.958 24l-7.13 7.13a.573.573 0 0 0 .81.81l7.52-7.521a.559.559 0 0 0 .168-.405.583.583 0 0 0-.168-.405l-7.52-7.52a.56.56 0 0 0-.81-.015z"/></g></g></g></g></g></svg>