<svg xmlns="http://www.w3.org/2000/svg" width="46" height="46" viewBox="0 0 46 46"><defs><clipPath id="euk5a"><path fill="#fff" d="M47 24c0 12.703-10.297 23-23 23S1 36.703 1 24 11.297 1 24 1s23 10.297 23 23z"/></clipPath></defs><g><g><g><path fill="#fff" d="M47 24c0 12.703-10.297 23-23 23S1 36.703 1 24 11.297 1 24 1s23 10.297 23 23z"/><path fill="none" stroke="#dcdcdc" stroke-miterlimit="20" stroke-width="2" d="M47 24c0 12.703-10.297 23-23 23S1 36.703 1 24 11.297 1 24 1s23 10.297 23 23z" clip-path="url(&quot;#euk5a&quot;)"/></g><g><g/><g><g><path fill="#1e1f21" d="M27.172 17.074a.573.573 0 0 1 0 .81L20.042 25l7.13 7.13a.573.573 0 0 1-.81.81l-7.52-7.521a.559.559 0 0 1-.168-.405c0-.14.056-.293.168-.405l7.52-7.52a.56.56 0 0 1 .81-.015z"/></g></g></g></g></g></svg>