<svg xmlns="http://www.w3.org/2000/svg" width="17" height="9" viewBox="0 0 17 9"><defs><clipPath id="cjh8a"><path fill="#fff" d="M-.243 9.32V-.32h17.486v9.64zM15.982.559a.54.54 0 0 0-.764 0L8.496 7.292 1.762.558a.54.54 0 0 0-.764.764l7.103 7.104a.528.528 0 0 0 .382.158.55.55 0 0 0 .383-.158l7.103-7.104a.53.53 0 0 0 .013-.764z"/></clipPath></defs><g><g><g/><g><g><path fill="#1e1f21" d="M15.982.558a.54.54 0 0 0-.764 0L8.496 7.292 1.762.558a.54.54 0 0 0-.764.764l7.103 7.104a.528.528 0 0 0 .382.158.55.55 0 0 0 .383-.158l7.103-7.104a.53.53 0 0 0 .013-.764z"/><path fill="none" stroke="#1e1f21" stroke-miterlimit="20" stroke-width=".8" d="M15.982.558a.54.54 0 0 0-.764 0L8.496 7.292v0L1.762.558a.54.54 0 0 0-.764.764l7.103 7.104a.528.528 0 0 0 .382.158.55.55 0 0 0 .383-.158l7.103-7.104a.53.53 0 0 0 .013-.764z" clip-path="url(&quot;#cjh8a&quot;)"/></g></g></g></g></svg>