<svg xmlns="http://www.w3.org/2000/svg" width="13" height="18" viewBox="0 0 13 18"><g><g><g/><g><g><g><path fill="#fff" d="M12.733 0c.452 0 .818.366.818.818v16.364a.818.818 0 0 1-.818.818H1.267a.818.818 0 0 1-.818-.818V.818C.449.366.815 0 1.267 0zm-3 16.364h2.182v-2.182H9.733zm0-3.819h2.182v-2.181H9.733zm0-3.818h2.182V6.545H9.733zm-3.818 7.637h2.181v-2.182H5.915zm0-3.819h2.181v-2.181H5.915zm0-3.818h2.181V6.545H5.915zm6-3.818V1.636h-9.83V4.91zM4.278 6.545H2.085v2.182h2.193zm0 9.819v-6H2.085v6z"/></g></g></g></g></g></svg>