<svg xmlns="http://www.w3.org/2000/svg" width="22" height="22" viewBox="0 0 22 22"><g><g><g/><g><g><g><path fill="#edcd27" d="M8.08 10.05a.92.92 0 1 0 0-1.84.92.92 0 0 0 0 1.84z"/></g><g><path fill="#edcd27" d="M13.92 13.79a.92.92 0 1 0 0-1.84.92.92 0 0 0 0 1.84z"/></g><g><path fill="#edcd27" d="M21.5 12.215a1.43 1.43 0 0 1-.46 2.096l-.492.275a1.43 1.43 0 0 0-.712 1.51l.104.555a1.431 1.431 0 0 1-1.326 1.69l-.563.032a1.424 1.424 0 0 0-1.298 1.05l-.15.546a1.435 1.435 0 0 1-1.929.946l-.523-.216a1.433 1.433 0 0 0-1.627.383l-.37.424a1.429 1.429 0 0 1-2.145.018l-.374-.42a1.428 1.428 0 0 0-1.632-.36l-.519.22a1.429 1.429 0 0 1-1.943-.914l-.157-.541a1.437 1.437 0 0 0-1.317-1.033l-.563-.022a1.432 1.432 0 0 1-1.353-1.668l.095-.554a1.429 1.429 0 0 0-.735-1.502l-.496-.266a1.435 1.435 0 0 1-.496-2.091l.325-.46a1.435 1.435 0 0 0-.013-1.673l-.334-.455a1.43 1.43 0 0 1 .46-2.096l.491-.275a1.43 1.43 0 0 0 .712-1.51l-.103-.555a1.431 1.431 0 0 1 1.325-1.69l.564-.032a1.424 1.424 0 0 0 1.298-1.05l.149-.546a1.435 1.435 0 0 1 1.929-.946l.523.216A1.433 1.433 0 0 0 9.472.918l.37-.424a1.429 1.429 0 0 1 2.146-.018l.374.42c.41.46 1.068.603 1.632.36l.518-.22a1.429 1.429 0 0 1 1.943.914l.158.541c.171.59.703 1.006 1.316 1.033l.564.022c.86.036 1.496.82 1.352 1.668l-.095.555a1.429 1.429 0 0 0 .735 1.5l.496.267c.762.41.992 1.388.496 2.091l-.325.46a1.435 1.435 0 0 0 .014 1.673zm-13.43-.866a2.216 2.216 0 0 0 2.218-2.218A2.216 2.216 0 0 0 8.07 6.914 2.216 2.216 0 0 0 5.852 9.13 2.22 2.22 0 0 0 8.07 11.35zm6.248-3.507a.542.542 0 0 0-.072-.762.542.542 0 0 0-.762.072l-5.82 7.01a.542.542 0 0 0 .073.762c.23.19.572.158.762-.072zm1.817 5.022a2.216 2.216 0 0 0-2.218-2.218 2.216 2.216 0 0 0-2.218 2.218c0 1.226.992 2.218 2.218 2.218a2.216 2.216 0 0 0 2.218-2.218z"/></g></g></g></g></g></svg>