<svg xmlns="http://www.w3.org/2000/svg" width="22" height="22" viewBox="0 0 22 22"><g><g><g/><g><path fill="#95c34a" d="M22 11c0 6.075-4.925 11-11 11S0 17.075 0 11 4.925 0 11 0s11 4.925 11 11z"/></g><g><g/><g><g><g><path fill="#443434" d="M15.634 10.976c.448-.352.913-1.476-.46-1.8-.989-.232-1.652.472-2.122-.563-.43-.948.898-2.668-.548-3.48-.533-.299-1.023-.109-.971.71.097 1.638-.894 1.873-1.63 3.406-.703.41-1.275.636-1.98 1.057l-1.013.01v4.767h.94l.726.212c1.113.583 2.486.705 3.442.705.575 0 1.735-.054 2.113-.357.429-.342.552-.892.59-1.123.747-.3.946-.924.673-1.6.322-.178.523-.415.596-.706.15-.592-.245-1.045-.356-1.238z"/></g></g></g></g></g></g></svg>